<?xml version="1.0" encoding="utf-8"?>
<!-- Generator: Adobe Illustrator 25.2.1, SVG Export Plug-In . SVG Version: 6.00 Build 0)  -->
<svg version="1.1" id="Layer_1" xmlns="http://www.w3.org/2000/svg" xmlns:xlink="http://www.w3.org/1999/xlink" x="0px" y="0px"
	 viewBox="0 0 16.8 16.8" style="enable-background:new 0 0 16.8 16.8;" xml:space="preserve">
<path d="M3.5,12.6H2.9c-0.7,0-1.2-0.6-1.2-1.2V9.2c0-0.7,0.6-1.2,1.2-1.2h0.6V12.6z M4.1,6.7H2.9c0.2-2.8,2.6-5.1,5.5-5.1
	c2.3,0,4.4,1.4,5.2,3.6c0.1,0.3,0.5,0.5,0.8,0.4c0.3-0.1,0.5-0.5,0.4-0.8c-0.5-1.3-1.3-2.4-2.4-3.2c-1.1-0.8-2.5-1.2-3.9-1.2
	c-1.8,0-3.5,0.7-4.8,2c-1.3,1.3-2,2.9-2,4.7C0.9,7.5,0.4,8.3,0.4,9.2v2.1c0,1.4,1.1,2.5,2.5,2.5h1.3c0.3,0,0.6-0.3,0.6-0.6V7.3
	C4.8,7,4.5,6.7,4.1,6.7z"/>
<path d="M15.1,11.3c0,0.7-0.6,1.2-1.2,1.2h-0.6v-1V7.9h0.6c0.7,0,1.2,0.6,1.2,1.2V11.3z M13.9,6.7h-1.2C12.3,6.7,12,7,12,7.3v4.3
	v1.6v0.7c0,0.3-0.3,0.6-0.6,0.6H9.5v0c-0.2-0.4-0.6-0.6-1.1-0.6c-0.7,0-1.2,0.6-1.2,1.2s0.6,1.2,1.2,1.2c0.5,0,0.9-0.3,1.1-0.6v0
	h1.9c1,0,1.9-0.8,1.9-1.9v0h0.6c1.4,0,2.5-1.1,2.5-2.5V9.2C16.4,7.8,15.3,6.7,13.9,6.7z"/>
</svg>
