<?xml version="1.0" encoding="utf-8"?>
<!-- Generator: Adobe Illustrator 25.2.1, SVG Export Plug-In . SVG Version: 6.00 Build 0)  -->
<svg version="1.1" id="Layer_1" xmlns="http://www.w3.org/2000/svg" xmlns:xlink="http://www.w3.org/1999/xlink" x="0px" y="0px"
	 viewBox="0 0 13 16" style="enable-background:new 0 0 13 16;" xml:space="preserve">
<style type="text/css">
	.st0{fill-rule:evenodd;clip-rule:evenodd;}
</style>
<g>
	<path class="st0" d="M0.6,6.6c0.3,0,0.5,0.2,0.5,0.5v7.7h4c0.3,0,0.5,0.2,0.5,0.5c0,0.3-0.2,0.5-0.5,0.5H0.1V7.1
		C0.1,6.8,0.3,6.6,0.6,6.6L0.6,6.6z"/>
	<path class="st0" d="M11.9,7.1v7.7h-4c-0.3,0-0.5,0.2-0.5,0.5c0,0.3,0.2,0.5,0.5,0.5h5.1V7.1c0-0.3-0.2-0.5-0.5-0.5
		C12.1,6.6,11.9,6.8,11.9,7.1z"/>
	<path class="st0" d="M1.9,3.7c-0.8-0.8-1-1.8-0.5-2.3c0.2-0.2,0.4-0.3,0.7-0.3c0.6,0,1.2,0.3,1.6,0.7c0.8,0.8,2,3.2,2.2,4.1
		C5,5.7,2.7,4.5,1.9,3.7z M9.3,1.9c0.5-0.5,1-0.7,1.5-0.8h0c0.3,0,0.5,0.1,0.7,0.3c0.2,0.2,0.3,0.6,0.2,1c-0.1,0.4-0.3,0.9-0.7,1.3
		c-0.8,0.8-3.1,2-4,2.3C7.3,5.1,8.5,2.7,9.3,1.9z M0.6,0.7c-0.9,0.9-0.7,2.6,0.5,3.8C1.8,5.1,4.5,6.8,5.9,7v5.4
		c0,0.3,0.2,0.5,0.5,0.5C6.8,13,7,12.7,7,12.4V7c1.4-0.2,4.2-1.9,4.8-2.6c0.7-0.6,1.1-1.5,1.1-2.3c0-0.6-0.2-1.1-0.6-1.5
		c-0.9-0.9-2.6-0.7-3.8,0.5C7.7,2.2,7,3.3,6.5,4.5C6,3.3,5.3,2.2,4.4,1.1c-0.7-0.7-1.5-1-2.3-1C1.5,0.1,1,0.3,0.6,0.7z"/>
</g>
</svg>
