<svg id="icon-utility-user" xmlns="http://www.w3.org/2000/svg" xmlns:xlink="http://www.w3.org/1999/xlink" width="18.324" height="24" viewBox="0 0 18.324 24">
  <defs>
    <clipPath id="clip-path">
      <rect id="Rectangle_3643" data-name="Rectangle 3643" width="18.324" height="24" fill="none"/>
    </clipPath>
  </defs>
  <g id="icon-user">
    <g id="Group_24171" data-name="Group 24171" clip-path="url(#clip-path)">
      <path id="Path_31218" data-name="Path 31218" d="M8.047,11.613a5.807,5.807,0,1,1,5.807-5.807,5.813,5.813,0,0,1-5.807,5.807m0-9.965A4.157,4.157,0,1,0,12.2,5.805,4.163,4.163,0,0,0,8.047,1.648" transform="translate(1.119 0)"/>
      <path id="Path_31219" data-name="Path 31219" d="M18.141,20.524H.187l-.04-.781a63.329,63.329,0,0,1,.009-8.269,3.7,3.7,0,0,1,.372-.942A8.132,8.132,0,0,1,1.882,8.659a9.9,9.9,0,0,1,1.741-1.5,3.1,3.1,0,0,1,.339-.207L4.68,8.442l-.163.108A8.2,8.2,0,0,0,3.136,9.731,6.78,6.78,0,0,0,2,11.28a2.375,2.375,0,0,0-.219.49,54.043,54.043,0,0,0-.022,7.1H16.572a53.031,53.031,0,0,0-.028-7.135,3.269,3.269,0,0,0-.21-.448A6.2,6.2,0,0,0,15.2,9.734a8.3,8.3,0,0,0-1.416-1.206l-.219-.135L14.449,7l.219.138a9.888,9.888,0,0,1,1.72,1.456A7.9,7.9,0,0,1,17.8,10.535a3.512,3.512,0,0,1,.363.9,62.976,62.976,0,0,1,.015,8.3l-.04.781Z" transform="translate(0 3.476)"/>
    </g>
  </g>
</svg>
