<svg id="lenovo-tiktok-30-alternate-med" xmlns="http://www.w3.org/2000/svg" width="30" height="30" viewBox="0 0 30 30">
  <path id="Path_36916" data-name="Path 36916" d="M254.165,212.018a15,15,0,1,1-15-15,15,15,0,0,1,15,15" transform="translate(-224.165 -197.018)" fill="#294e95"/>
  <path id="Path_36917" data-name="Path 36917" d="M270.513,225.74c0-.087,0-.09-.094-.09a4.119,4.119,0,0,1-.653-.057c-.785-.118-3.33-1.454-3.761-3.638a6.6,6.6,0,0,1-.1-.816c0-.1,0-.1-.1-.105h-3.059c-.2,0-.172-.025-.172.176q0,6.48,0,12.96a2.706,2.706,0,0,1-.033.48,2.8,2.8,0,0,1-3.336,2.292,3.777,3.777,0,0,1-.656-.216l-.052-.048c-.072-.06-.152-.11-.229-.164a2.757,2.757,0,0,1,.622-4.915,2.473,2.473,0,0,1,.993-.148,2.936,2.936,0,0,1,.649.1c.073.021.113-.005.117-.083,0-.027,0-.055,0-.082,0-.776-.029-2.47-.033-2.473,0-.223,0-.447.006-.67,0-.064-.031-.076-.085-.082a6.321,6.321,0,0,0-1.208-.027,6.114,6.114,0,0,0-5.127,3.586,6.12,6.12,0,0,0-.252,4.334,6.076,6.076,0,0,0,2.068,2.975,1.447,1.447,0,0,0,.317.219l.151.134a3.186,3.186,0,0,0,.51.312,6.173,6.173,0,0,0,7.472-1.5,6.01,6.01,0,0,0,1.472-4c.012-2.152,0-4.3,0-6.455,0-.051-.03-.124.027-.15s.089.038.13.066a7.926,7.926,0,0,0,2.6,1.12,7.36,7.36,0,0,0,1.654.2c.177,0,.2-.009.2-.184,0-.764-.039-2.853-.039-3.056" transform="translate(-247.108 -215.701)" fill="#fff"/>
</svg>
