<svg id="lenovo-facebook-30-alternate-med" xmlns="http://www.w3.org/2000/svg" width="30" height="30" viewBox="0 0 30 30">
  <path id="Path_36914" data-name="Path 36914" d="M30,15A15,15,0,1,0,12.656,29.818V19.336H8.848V15h3.809V11.7c0-3.759,2.24-5.836,5.666-5.836a23.058,23.058,0,0,1,3.358.293V9.844H19.788a2.168,2.168,0,0,0-2.444,2.342V15H21.5l-.665,4.336h-3.5V29.818A15,15,0,0,0,30,15" transform="translate(0 0)" fill="#294e95"/>
  <path id="Path_36915" data-name="Path 36915" d="M51.806,39.843l.665-4.336h-4.16V32.694a2.168,2.168,0,0,1,2.444-2.342h1.892V26.66a23.075,23.075,0,0,0-3.358-.293c-3.426,0-5.666,2.076-5.666,5.836v3.3H39.815v4.336h3.808V50.325a15.164,15.164,0,0,0,4.688,0V39.843Z" transform="translate(-30.967 -20.508)" fill="#fff"/>
</svg>
