<svg id="lenovo-instagram-30-alternate-med" xmlns="http://www.w3.org/2000/svg" width="30" height="30" viewBox="0 0 30 30">
  <path id="Path_36899" data-name="Path 36899" d="M463.33,0a15,15,0,1,1-15,15,15,15,0,0,1,15-15" transform="translate(-448.33)" fill="#294e95"/>
  <path id="Path_36900" data-name="Path 36900" d="M482.774,26.7c2.522,0,2.82.01,3.816.055a5.229,5.229,0,0,1,1.754.325,3.127,3.127,0,0,1,1.792,1.792,5.228,5.228,0,0,1,.325,1.754c.045,1,.055,1.295.055,3.816s-.01,2.82-.055,3.816a5.228,5.228,0,0,1-.325,1.754,3.127,3.127,0,0,1-1.792,1.792,5.224,5.224,0,0,1-1.754.325c-1,.045-1.294.055-3.816.055s-2.821-.01-3.816-.055a5.224,5.224,0,0,1-1.754-.325,3.127,3.127,0,0,1-1.792-1.792,5.225,5.225,0,0,1-.325-1.754c-.045-1-.055-1.295-.055-3.816s.01-2.82.055-3.816a5.225,5.225,0,0,1,.325-1.754,3.127,3.127,0,0,1,1.792-1.792,5.23,5.23,0,0,1,1.754-.325c1-.045,1.295-.055,3.816-.055m0-1.7c-2.565,0-2.887.011-3.894.057a6.933,6.933,0,0,0-2.292.439,4.829,4.829,0,0,0-2.762,2.762,6.933,6.933,0,0,0-.439,2.292c-.046,1.007-.057,1.329-.057,3.894s.011,2.887.057,3.894a6.933,6.933,0,0,0,.439,2.292,4.829,4.829,0,0,0,2.762,2.762,6.933,6.933,0,0,0,2.292.439c1.007.046,1.329.057,3.894.057s2.887-.011,3.894-.057a6.933,6.933,0,0,0,2.292-.439,4.829,4.829,0,0,0,2.762-2.762,6.935,6.935,0,0,0,.439-2.292c.046-1.007.057-1.329.057-3.894s-.011-2.887-.057-3.894a6.935,6.935,0,0,0-.439-2.292,4.829,4.829,0,0,0-2.762-2.762,6.933,6.933,0,0,0-2.292-.439c-1.007-.046-1.329-.057-3.894-.057" transform="translate(-467.774 -19.444)" fill="#fff"/>
  <path id="Path_36901" data-name="Path 36901" d="M498.856,45.676a4.85,4.85,0,1,0,4.85,4.85,4.85,4.85,0,0,0-4.85-4.85m0,8A3.148,3.148,0,1,1,502,50.526a3.148,3.148,0,0,1-3.148,3.148" transform="translate(-483.856 -35.454)" fill="#fff"/>
  <path id="Path_36902" data-name="Path 36902" d="M535.684,40.846a1.133,1.133,0,1,1-1.133-1.133,1.133,1.133,0,0,1,1.133,1.133" transform="translate(-514.509 -30.157)" fill="#fff"/>
</svg>
