<svg id="lenovo-pinterest-30-alternate-med" xmlns="http://www.w3.org/2000/svg" width="29.889" height="30" viewBox="0 0 29.889 30">
  <path id="Path_36920" data-name="Path 36920" d="M5780.238,335.781a14.944,14.944,0,1,1-14.944-14.944,14.944,14.944,0,0,1,14.944,14.944" transform="translate(-5750.35 -320.837)" fill="#294e95"/>
  <path id="Path_36921" data-name="Path 36921" d="M5820.006,403.839s-.053.37-.529.106a6.547,6.547,0,0,1-2.94-5.8c0-3.85,2.754-8.889,9.82-8.889a9.406,9.406,0,0,1,6.676,2.573,8.194,8.194,0,0,1,2.491,6.125c0,4.537-2.778,9.117-7.691,9.117a3.936,3.936,0,0,1-3.448-1.762l-.873,3.449a13.7,13.7,0,0,1-2.633,4.886,14.2,14.2,0,0,1-.253-5.315c.507-2.158,1.824-7.536,1.824-7.536a6.664,6.664,0,0,1-.491-2.285c0-1.142.7-3.554,2.713-3.554a1.834,1.834,0,0,1,1.856,2.11,3.9,3.9,0,0,1-.116,1.015,35.387,35.387,0,0,1-1.052,3.675,2.2,2.2,0,0,0,2.151,2.957,3.948,3.948,0,0,0,3.084-1.565,8.1,8.1,0,0,0,1.6-5.257,5.855,5.855,0,0,0-2.125-4.738,6.7,6.7,0,0,0-4.125-1.336,7.3,7.3,0,0,0-3.963,1.167,6.555,6.555,0,0,0-2.735,5.287,5.976,5.976,0,0,0,1.193,3.554c.206.286-.428,2.009-.428,2.009" transform="translate(-5811.108 -383.649)" fill="#fff"/>
</svg>
