<svg id="icon-masthead-cart" xmlns="http://www.w3.org/2000/svg" width="24" height="24" viewBox="0 0 24 24">
  <path id="Path_31198" data-name="Path 31198" d="M21.1,15.45H3.85L1.9,3.3H23.05ZM5.2,13.8H19.6l1.35-9H3.85l1.35,9Z" transform="translate(0.95 1.65)" fill="#171717"/>
  <path id="Path_31199" data-name="Path 31199" d="M2.85,5.25,2.4,1.65H0V0H3.75L4.5,5.1Z" fill="#171717"/>
  <path id="Path_31200" data-name="Path 31200" d="M6.55,18.1A3.168,3.168,0,0,1,3.4,14.95,3.272,3.272,0,0,1,6.55,11.8,3.272,3.272,0,0,1,9.7,14.95,3.168,3.168,0,0,1,6.55,18.1Zm0-4.65a1.5,1.5,0,0,0-1.5,1.5,1.613,1.613,0,0,0,1.5,1.5,1.613,1.613,0,0,0,1.5-1.5A1.5,1.5,0,0,0,6.55,13.45Z" transform="translate(1.7 5.9)" fill="#171717"/>
  <rect id="Rectangle_3635" data-name="Rectangle 3635" width="1.65" height="5.25" transform="translate(4.585 15.836) rotate(-4.925)" fill="#171717"/>
  <path id="Path_31201" data-name="Path 31201" d="M12.95,18.1A3.168,3.168,0,0,1,9.8,14.95a3.272,3.272,0,0,1,3.15-3.15,3.272,3.272,0,0,1,3.15,3.15A3.272,3.272,0,0,1,12.95,18.1Zm0-4.65a1.5,1.5,0,0,0-1.5,1.5,1.613,1.613,0,0,0,1.5,1.5,1.613,1.613,0,0,0,1.5-1.5A1.613,1.613,0,0,0,12.95,13.45Z" transform="translate(4.9 5.9)" fill="#171717"/>
  <rect id="Rectangle_3636" data-name="Rectangle 3636" width="4.2" height="1.65" transform="translate(10.95 19.95)" fill="#171717"/>
</svg>
